<?xml version="1.0" encoding="UTF-8"?>
<svg xmlns="http://www.w3.org/2000/svg" width="1440" height="1080" viewBox="0 0 1440 1080">
  <defs>
    <clipPath id="cameraClip">
      <rect x="360" y="180" width="720" height="720"/>
    </clipPath>
  </defs>

  <g id="Layer_5">
    <rect x="360" y="90" width="720" height="900" fill="#010101"/>
    <rect y="0" width="1440" height="90" fill="#010101"/>
    <rect y="990" width="1440" height="90" fill="#010101"/>
  </g>

  <g id="camerafeed" clip-path="url(#cameraClip)">
    <rect x="360" y="180" width="720" height="720" fill="red"/> <!-- Simulating the Camera Feed -->
  </g>
  <g id="Layer_1" data-name="Layer 1">
    <path d="M361,990.5H-.2V89.5h361.2v901ZM.8,989.5h359.2V90.5H.8v899Z" fill="#010101"/>
    <path d="M361,833H-.5V89.5h361.5v743.5ZM.5,832h359.5V90.5H.5v741.5Z" fill="#010101"/>
    <path d="M1440.2,991h-361.2V90h361.2v901ZM1080,990h359.2V91h-359.2v899Z" fill="#010101"/>
    <path d="M1440.2,598h-361.2V89.5h361.2v508.5ZM1080,597h359.2V90.5h-359.2v506.5Z" fill="#010101"/>
    <g>
      <path d="M606.7,300.8v-4.5h17.8c.2-.5.4-1.2.7-2.1.2-.6.3-1.2.5-1.6-2.3.2-5,.2-8,.2h-11.7l-.5-4.7c16.6,0,32.8-.4,48.8-1.2l.7,4.7c-7.5.5-15.1.8-22.7.9l-1.4,3.8h23.4v4.5h-25.1l-2.1,4h31.4v4.5h-34.2c-.8,1.4-1.6,2.7-2.6,3.8h30.7v28.4h-5.9v-2.1h-27.7v2.1h-5.9v-19.5c-2.7,2.3-5.5,4.7-8.7,7-.2-.5-.5-1.2-.9-2.1-.8-1.6-1.3-2.7-1.6-3.5,6.9-4.7,12-9.4,15.5-14.1h-14.5v-4.5h17.8c.3-.5.7-1.2,1.2-2.1.5-.8.8-1.4.9-1.9h-15.9ZM618.9,317v3.8h27.7v-3.8h-27.7ZM618.9,324.5v3.8h27.7v-3.8h-27.7ZM618.9,331.8v3.3h27.7v-3.3h-27.7Z" fill="#fff"/>
      <path d="M664.3,295.2v-4.5h14.8l-4.2-4.5,6.6-1.4c1.6,1.9,3.3,3.8,5.2,5.9h9.1c.8-.8,1.8-2,3-3.5.8-.9,1.3-1.6,1.6-2.1l6.8,1.2-4,4.5h13.8v4.5h-25.8l-1.2,3.3h23.4v4.2h-24.8c-.2.3-.4.9-.7,1.6-.5.8-.8,1.4-.9,1.9h30.9v4.2h-33.5c-.6,1.1-1.4,2.3-2.3,3.5h30.5v27.4h-6.1v-2.8h-27.7v2.8h-5.9v-18c-2.5,2-5.2,4.2-8.2,6.6-.5-.9-1.2-2.3-2.1-4-.5-.6-.8-1.1-.9-1.4,6.9-4.5,12.1-9.2,15.7-14.1h-14.5v-4.2h17.3c.3-.5.6-1.1.9-1.9.5-.8.8-1.3.9-1.6h-15v-4.2h16.6l.9-3.3h-20.4ZM678.9,317.9v3.3h27.7v-3.3h-27.7ZM678.9,324.7v3.5h27.7v-3.5h-27.7ZM678.9,331.8v3h27.7v-3h-27.7Z" fill="#fff"/>
      <path d="M724.8,307.1c-.9-2-2-3.8-3-5.2,2.8-4.8,5.1-10.4,6.8-16.6l5.9.9c-.6,2.3-1.4,4.5-2.3,6.6h8v5.2h-10.1c-.9,2-2,4-3,5.9h12.2v5.2h-4.9v6.8h6.1v5.2h-6.1v10.3c1.9-1.4,3.6-2.9,5.2-4.5.2,2.2.5,4.1.9,5.9-.3.2-.8.5-1.4.9-2.8,1.7-4.9,3.2-6.3,4.5-.6.6-1.4,1.4-2.3,2.3l-3.5-4.5c1.4-1.3,2-2.9,1.9-4.9v-10.1h-6.3v-5.2h6.3v-6.8h-3.3v-2.3l-.5.5ZM767.2,340.2c-4.4,0-6.6-1.9-6.6-5.6v-6.8h-4.9c.2,6.7-4.8,11.3-14.8,13.8-.9-1.4-1.9-3-2.8-4.7,8.3-1.6,12.3-4.6,12.2-9.1h-7.3v-19.5h31.4v19.5h-8.2v5.6c0,1.4.9,2.1,2.6,2.1h2.1c1.4,0,2.3-.6,2.8-1.9.3-1.1.5-2.6.5-4.5l4.7,1.6c-.2,2.2-.5,3.8-.9,4.7-.8,3.1-3,4.7-6.6,4.7h-4.2ZM742.6,294.7v-4.7h13.6l-1.6-4.5,6.6-.5c.5,1.6.9,3.2,1.4,4.9h13.6v4.7h-7.3l2.8.2-3.3,5.2h9.6v4.7h-37.3v-4.7h9.4c-.9-1.7-2-3.4-3-4.9l3.3-.5h-7.7ZM748.7,312.5v3.5h20.2v-3.5h-20.2ZM748.7,319.8v3.8h20.2v-3.8h-20.2ZM762.1,300.1c.8-.9,1.6-2.3,2.6-4.2.3-.5.5-.9.7-1.2h-12.2c.5.6,1,1.5,1.6,2.6.8,1.3,1.3,2.2,1.6,2.8h5.6Z" fill="#fff"/>
      <path d="M782.5,321.2v-5.9h29.1c0-.3,0-.5.2-.7.8-6.9,1.2-16.6,1.4-29.3h6.6c-.2,12.8-.6,22.7-1.4,29.5v.5h19.9v5.9h-21.1c0,.3-.2.7-.5,1.2-.2.6-.3,1.1-.5,1.4,5.6,3,12.7,6.7,21.1,11.2l-4.2,5.4c-4.1-2.7-9.8-6.1-17.3-10.3-1.1-.6-2-1.1-2.6-1.4-3.6,4.8-12.4,9.1-26.5,12.7-.5-.8-1.4-2.3-2.8-4.5-.5-.8-.9-1.3-1.2-1.6,16.7-3.3,25.9-8,27.4-14.1h-27.7ZM799.6,312.8c-5.6-4.1-10.4-7.1-14.3-9.1l3.5-4.7c5.3,3,10.2,5.9,14.5,8.7l-3.8,5.2ZM806.4,301.1c-5.3-3.8-10-6.7-14.1-8.9l3.5-4.7c5.9,3.3,10.7,6.1,14.3,8.4l-3.8,5.2Z" fill="#fff"/>
    </g>
    <g>
      <path d="M77.9,444.5l5.1.8c-1.1,3.1-1.9,5.5-2.5,7.3-.8-.3-2-.6-3.7-1-.7,0-1.2-.2-1.6-.3,1.2-2.8,2.1-5.1,2.6-6.9ZM77,443.6v-22.2h11.8v8.6c2.4-1.2,3.7-2.6,3.9-4.4h-3v-4.4h16.2c0,2.4,0,4.7-.3,6.9,0,2.8-1.4,4.2-3.9,4.1-1,0-2.5.1-4.5.1-.2-1.3-.4-2.5-.8-3.7-.7,1.6-2.2,3.1-4.6,4.5-.4-.4-1.1-1-2-1.8-.4-.5-.8-.8-1.1-1v13.1h-11.8ZM81.5,426v4.2h2.8v-4.2h-2.8ZM84.2,439.1v-4.4h-2.8v4.4h2.8ZM89.2,445.1c.2.8.4,2,.8,3.4.3,1.5.5,2.6.7,3.4l-5.4.4c-.2-2-.5-4.3-1.1-6.9l5-.3ZM90.1,443.7v-10.3h15.4v10.3h-15.4ZM96.6,444.8c.7,1.8,1.4,3.9,2.1,6.4l-5.3.8c-.3-1-.6-2.3-1.1-3.8-.4-1.3-.6-2.3-.8-3l5-.4ZM94.8,439.8h6.1v-2.3h-6.1v2.3ZM101.3,425.6h-4.1c0,.9-.3,1.9-.7,2.9h3.2c.9,0,1.4-.4,1.4-1.2,0-.5,0-1,.1-1.6ZM104.4,444.4c.3.5.6,1.4,1.1,2.4.7,1.7,1.3,3.1,1.7,4.2l-5.3,1.2c-.9-2.4-1.8-4.8-2.8-7.1l5.3-.8Z" fill="#010101"/>
      <path d="M127.8,420.3h5.4v8.2h7.1v5h-21.2c0,1.5,0,2.9-.1,3.9h16.1v14.3h-5.5v-9.1h-10.9c-.4,3.2-1.6,6.6-3.8,10.3-.4-.4-1.1-1.1-2.1-2.2-1.1-1-1.8-1.7-2.2-2.2,1.3-2.2,2.1-4.4,2.5-6.5.4-2,.7-5,.7-9v-11.8h5.5v7.2h8.7v-8.2Z" fill="#010101"/>
      <path d="M142.5,425.4l3.8-1.1c.3,1.4,1,3.7,1.8,6.9v-11.2h5v32.4h-5v-8.3c-.5.5-1.3,1.1-2.4,2-1.1.8-1.8,1.5-2.4,1.9l-.9-6.5c.3-.3.9-.7,1.7-1.4,1.8-1.2,3.1-2.1,3.9-2.9v-2.7l-3.2,1.1c-.8-3.4-1.6-6.9-2.5-10.3ZM165.4,420.5c0,.3-.3.6-.7,1.1-.3.5-.5,1-.7,1.2h9.9v4.9c-1.8,2.8-3.9,5-6.4,6.5h4.2v3.7h2.8v4.8h-2.8v4.1c.2,3.5-1.4,5.3-4.6,5.3-1.8,0-3.7.1-5.5.1-.3-1.5-.5-2.9-.8-4.2l-1.6,1.1c-.2-.2-.4-.5-.8-.8-1.2-1.4-2.3-2.6-3.2-3.5l2.5-2h-3.9v-4.8h2.2c-.2-.5-.5-1.1-1.1-2-.5-1-.9-1.8-1.2-2.3,2.5-.5,4.6-.9,6.3-1.4-.6-.5-1.3-1.2-2-1.9l3.3-2.7c1.1,1,2.1,1.9,3,2.7,1.1-.6,2.3-1.6,3.6-2.9h-7.6c-1.7,1.6-3.2,2.9-4.5,3.8-.8-1.4-1.7-2.8-2.6-4.4,3.2-2.2,5.4-4.5,6.7-7.1l5.4.7ZM166.7,434.6c-2.1,1.2-5.4,2.3-9.7,3.3h9.7v-3.3ZM163.1,446l-1.6,1.4c1.1,0,2.2.1,3.3.1,1.4,0,2.1-.7,2-2.3v-2.6h-6.8c1.1,1.1,2.1,2.2,3.2,3.4Z" fill="#010101"/>
      <path d="M185.8,452.6h-5.1v-11.7c-.3.3-.7.7-1.3,1.2-.6.5-1.1,1-1.4,1.4,0-.4-.3-1-.5-1.8-.6-1.8-1.1-3.1-1.3-3.9,3-2.6,5.5-5.7,7.5-9.1h-6.2v-5h8.4c.5-1.2,1-2.4,1.3-3.8l5.8.5c-.4,1.1-.7,2.2-1.2,3.3h16.5v5h-18.6c-1.1,2.2-2.3,4.3-3.8,6.3v17.7ZM194.6,429.7h5.4v5.6h6.7v4.9h-6.7v6.4h8v4.6h-21.3v-4.6h7.9v-6.4h-6.8v-4.9h6.8v-5.6Z" fill="#010101"/>
      <path d="M217,419.8l5.8.3c0,0,0,.2-.1.4-.2.3-.4.7-.8,1.4h19.2v4.4h-22.1c-.4.5-.8,1.1-1.3,1.6h21.1c0,.9,0,2.2-.1,3.9,0,1.6-.1,2.9-.1,3.7h3.4v4.4h-3.7c0,.5,0,1-.1,1.8v1.6h2.8v4.4h-3c-.2,3.4-2.1,4.9-5.7,4.8-3.2,0-5.6,0-7.2.1-.4-1.1-.7-2.4-1.2-3.9h6.2c1.3,0,2.1-.2,2.4-1h-19.9l1.1-7.8h-3.4v-4.4h3.9l.7-4.6c-.7.6-1.4,1.3-2.2,2-.3-.6-.7-1.6-1.2-2.9-.4-1.1-.8-1.9-1.1-2.4,3.1-2.2,5.4-4.8,6.8-7.8ZM221.8,441.7l1.4-1.9h-4.5l-.4,3.4h5.5c-.4-.3-.9-.6-1.6-1.1-.2-.2-.4-.3-.5-.4ZM222.3,433.8l1.3-1.6h-3.8l-.4,3.3h5.4c-.8-.5-1.6-1.1-2.5-1.6ZM229.8,441.7l-1.3,1.5h4.2c0-.4.1-.9.1-1.6,0-.8.1-1.4.1-1.8h-5.9c.3.2.8.5,1.4,1,.6.4,1.1.7,1.3,1ZM230.3,433.5l-1.4,1.9h4.2c0-.4.1-.9.1-1.6,0-.7.1-1.3.1-1.6h-5.3c.8.4,1.5.8,2.2,1.4Z" fill="#010101"/>
      <path d="M85.4,492.8h-5.9c.8-7.4,3.6-14.6,8.4-21.4h-12.8v-4.8h19.1v4.2c-5.4,7-8.4,14.4-8.9,22Z" fill="#010101"/>
      <path d="M115,461.7h5.1v6l3.3-1.8c2.1,4,3.7,7.1,4.7,9.3l-4.2,2.7c-.3-.6-.7-1.5-1.2-2.6-1.1-2.3-1.9-4.2-2.6-5.7v10.7c0-.2.3-.5.5-.8.3-.4.9-1.1,1.6-2.3l4.2,3.1c-3.9,6.3-9.5,11-16.7,14.3-.4-.5-.9-1.5-1.7-2.7-.6-1-1.1-1.6-1.3-1.9,5.2-2.1,9.1-4.7,11.8-7.8h-3.6v-13.5c-.7,2.7-1.8,6.6-3.3,11.6l-4.5-1.9c.3-.7.5-1.4.7-2.2h-3v3.5l1.2-1.1c1,.8,2.5,2.1,4.5,3.9l-3.3,3.7c-.3-.3-.7-.7-1.2-1.4-.5-.5-.9-1-1.2-1.2v10.3h-4.9v-9.8c-.9,1.9-1.9,3.6-3,5.2-.4-2.4-.9-4.4-1.3-6,1.4-1.7,2.7-4.1,3.9-7.2h-3.6v-5h3.9v-3c-1,0-1.9,0-2.9.1,0-.6-.2-1.5-.3-2.4-.2-1.1-.3-1.9-.4-2.4,5.4-.4,9.2-.7,11.6-1l1.1,4.8c-.4,0-1.1,0-1.8.3-1.1,0-1.8.2-2.4.3v3.4h3.6v3.4c1-2.7,1.7-5.4,2.2-8l4.3,1.5v-6.4Z" fill="#010101"/>
      <path d="M138,462v5.2h2.6v4.9h-2.6v4.1c.3,0,.8-.2,1.3-.3.6-.2,1.1-.3,1.3-.3,0,2,0,3.8.1,5.3-.2,0-.5,0-.9.3-.8,0-1.4.2-1.8.3v8.4c0,2.5-1.2,3.9-3.6,4.1-1.5.2-2.8.3-3.9.3-.2-1-.4-2.3-.7-3.8-.2-.5-.3-.9-.3-1.1h2.1c.9,0,1.3-.5,1.3-1.4v-5.2c-.4.2-1.1.4-1.8.5-.6.2-1.1.3-1.3.4l-.4-5.9c.4,0,1.1-.2,1.8-.4.8,0,1.4-.2,1.7-.3v-5.2h-3.3v-4.9h3.3v-5.2h5ZM147.6,461.8l6.1.3c-.2.6-.4,1.5-.8,2.7-.3.7-.4,1.3-.5,1.6h8v27.8h-5.3v-2.3h-8.4v2.3h-5.1v-27.8h5.1c.3-1.4.7-2.9.9-4.6ZM146.7,471.4v5.4h8.4v-5.4h-8.4ZM146.7,481.7v5.6h8.4v-5.6h-8.4Z" fill="#010101"/>
      <path d="M183,480.9v3.9c-.5,1.5-1.2,2.9-2,3.9l2,1.4c.8-.3,1.5-.5,2.1-.8-.8-.9-1.5-1.9-2.1-3l2.6-1.6h-2v-3.8h10.8v4.1c-.8,1.7-1.6,3.2-2.5,4.4,1,.5,2.1.8,3.4,1.1-.7,1-1.4,2.3-2,3.8-1.9-.6-3.6-1.4-4.9-2.2-1.3.8-2.9,1.6-4.9,2.3,0-.2-.2-.4-.4-.7-.3-.4-.7-1-1.3-1.9l-1.4,1.8c-.3-.2-.7-.5-1.2-1-.5-.4-.9-.7-1.2-1-.9.7-2.5,1.7-4.7,2.9-.2-.3-.5-.8-1.1-1.5-.7-1.1-1.2-1.9-1.4-2.3,1.1-.2,2.2-.6,3.6-1.4-.3-.2-.7-.5-1.3-1-.6-.4-1.1-.6-1.4-.8l2.4-2.9h-1.7v-2.7c-.2,0-.4,0-.8.1-.4,0-.6,0-.8.1v6.8c0,3-1.1,4.6-3.4,4.8-.4,0-1,0-1.7.1-.7,0-1.3,0-1.7.1,0-1.7-.4-3.4-.8-5,.4,0,1,.1,1.6.1.9,0,1.3-.5,1.3-1.6v-4.2c-.8,0-1.6.3-2.5.5l-.4-5.7c1.1-.2,2-.3,2.9-.4v-5h-2.2v-5h2.2v-5.9h4.7v5.9h2.4v5h-2.4v4.2c.3,0,.9,0,1.7-.3-.5.2-.4.2.4,0v4.2h10.1ZM172.8,462.9h21.7v3.8h-1.8v9h2.4c0-.1,0,3.5,0,3.5h-2.4v1.1h-4.7v-.8l-14.6.4v-3.7c-.1,0,1.4,0,1.4,0v-9.5h-2v-3.8ZM178.7,484.7h-4.3c1.1.5,2.1,1.2,3.2,1.9.4-.5.8-1.2,1.2-1.9ZM179.5,466.7v1.2h8.4v-1.2h-8.4ZM179.5,470.8v1.1h8.4v-1.1h-8.4ZM179.5,474.9v1.2l8.4-.3v-1h-8.4ZM186.4,484.7c.7.8,1.4,1.6,2,2.3.8-.7,1.4-1.5,1.8-2.3h-3.8Z" fill="#010101"/>
      <path d="M196.8,474.8h32.1v6.1h-32.1v-6.1Z" fill="#010101"/>
      <path d="M235,477.6l5,2c-.5,1.5-1.4,4.1-2.8,7.9-1,2.6-1.6,4.4-2,5.4l-4.9-2.6c1.2-3.2,2.8-7.4,4.6-12.8ZM235.7,463.1c1.1,2.4,2.4,5.7,4.1,9.8l-5.1,2c-.4-.9-1-2.5-1.8-4.9-.9-2.3-1.5-3.9-1.8-5l4.7-1.9ZM252.9,472.5c0,.9-.1,1.8-.1,2.7.4,6,3.8,10.7,10.1,14.3-1.2,1.2-2.5,2.7-3.7,4.6-4.4-3-7.3-6.3-8.8-9.9-1.1,3.6-4.2,7.1-9.1,10.3-.6-.7-1.7-2-3.2-3.7-.3-.3-.5-.5-.7-.7,6.1-3.4,9.3-7.4,9.6-11.8.3-1.5.4-3.5.4-5.9h5.4ZM262,465.9v4.8l-2.4,6.8-5-1.4,1.8-5.3h-9.7c-.9,2.4-2,4.7-3.3,6.9-1.1-.6-2.7-1.5-4.7-2.6,2.7-4.5,4.6-9,5.8-13.5l5.4.7c0,.4-.3,1-.5,1.8-.3.7-.5,1.3-.7,1.8h13.3Z" fill="#010101"/>
      <path d="M275,487c-.2,3-1.9,4.6-5,4.8-3-.3-4.7-1.9-5-4.8.3-3.1,2-4.9,5-5.2,3.1.2,4.8,2,5,5.2ZM272.6,487c-.2-1.6-1-2.5-2.6-2.7-1.6.2-2.4,1.1-2.6,2.7.2,1.6,1,2.5,2.6,2.7,1.6-.2,2.4-1,2.6-2.7Z" fill="#010101"/>
    </g>
    <g>
      <path d="M57.3,885l1.4.2c-.4,1.2-.8,2.2-1.3,3.2h14.1v1.3h-14.6c-.9,2.1-2.1,4-3.4,5.8v12.8h-1.4v-11.2c-1.2,1.4-2.3,2.5-3.2,3.2-.2-.3-.5-.7-.9-1.1,3.5-3,5.9-6.2,7.4-9.5h-6.3v-1.3h6.9c.5-1,1-2.2,1.4-3.4ZM62.3,891.7h1.3v4.9h6.5v1.2h-6.5v7.6h7.9v1.1h-16.9v-1.1h7.7v-7.6h-6.4v-1.2h6.4v-4.9Z" fill="#010101"/>
      <path d="M73.2,899.5l-.2-1.5c1.1-.3,2.3-.7,3.6-1.1v-5.8h-3.4v-1.3h3.4v-4.7h1.3v4.7h2.8v1.3h-2.8v5.4c1-.3,2-.6,2.9-.9v1.4c-1,.3-2,.6-2.9.9v7.5c0,1.7-.8,2.5-2.5,2.5h-1.8c0-.1,0-.3,0-.4,0-.4-.1-.7-.2-1,.7,0,1.3,0,1.9,0,1,0,1.5-.4,1.5-1.3v-7c-.5.1-1.1.3-2,.6-.7.2-1.1.4-1.5.5ZM82.1,888.4h4.1c.5-1.3.8-2.4,1-3.3l1.4.2c-.3,1.1-.6,2.1-1,3.1h7.6v19.9h-1.4v-2h-10.4v2h-1.4v-19.9ZM83.5,889.6v6.9h10.4v-6.9h-10.4ZM83.5,897.8v7.5h10.4v-7.5h-10.4Z" fill="#010101"/>
      <path d="M100.9,903l1.3.5c-.4.8-1.1,2.2-2.2,4.4.9-1.6.8-1.5-.2.3l-1.3-.6c1.1-1.9,1.9-3.4,2.4-4.6ZM99.5,886.3h7.3v15.1h-7.3v-15.1ZM100.8,887.5v5.6h4.8v-5.6h-4.8ZM100.8,894.1v6.2h4.8v-6.2h-4.8ZM105.2,903.9l1.2-.6c.3.5.6,1.2,1,2.1l1,2-1.3.5c-.6-1.4-1.2-2.7-1.9-3.9ZM109.1,887.5v-1.2h11.2c0,1.2,0,2.5-.2,3.9,0,2-1.1,2.9-3,2.9h-2.7c0-.5,0-.9-.2-1.3.3,0,.8,0,1.6,0h1.1c1.2,0,1.9-.5,2.1-1.8,0-.3,0-.8,0-1.6v-1.2h-5.7c0,3.2-1.3,5.5-4.2,6.8-.3-.5-.6-.8-.9-1.1,2.7-1.1,3.9-3,3.8-5.8h-2.9ZM109.6,895h10.4v6.5h-10.4v-6.5ZM110.8,896.2v4.3h8.1v-4.3h-8.1ZM111.2,903.7l1.2-.6c.1.3.4.7.7,1.3.5,1,1,1.9,1.5,2.6l-1.3.6c0,0,0-.2,0-.3-.7-1.4-1.4-2.6-2-3.6ZM117.3,903.2l1.1-.6c.3.5.7,1.1,1.2,1.9.7,1.1,1.3,2,1.7,2.6l-1.3.7c-.7-1.4-1.6-2.9-2.6-4.6Z" fill="#010101"/>
      <path d="M124.1,889.8h1.4v18.5h-1.4v-18.5ZM125.5,885.9l1.1-.9c.2.2.5.5,1,1,1,1,1.7,1.7,2.2,2.2l-1.2,1c-.3-.4-.8-.9-1.6-1.7-.7-.8-1.2-1.3-1.6-1.7ZM129.8,891.5h9.8v11.9h-9.8v-11.9ZM131.2,892.8v4.1h7.1v-4.1h-7.1ZM131.2,898v4.2h7.1v-4.2h-7.1ZM131.9,887.8v-1.3h13.7v18.5c0,2.1-1.1,3.2-3.3,3.2-.8,0-1.9,0-3.4,0,0-.5,0-.9-.2-1.5.7,0,1.8,0,3.3,0,1.6,0,2.3-.7,2.2-2.1v-17h-12.3Z" fill="#010101"/>
      <path d="M155.4,900.3c0,2-.7,3.1-2.1,3.2-.5,0-1.1,0-1.7,0,0-.5-.1-.9-.4-1.3.6,0,1.1,0,1.5,0,1,0,1.5-.6,1.5-2,0-2-.7-3.9-2.1-5.7l2.1-7.1h-3.8v21h-1.2v-22.2h6.2v1.4l-2.1,6.7c1.4,1.6,2.1,3.6,2.1,5.9ZM156.8,886.4h14.3v1.1h-14.3v-1.1ZM158.1,908.5h-1.3v-12h13.8v9.2c0,1.7-.8,2.5-2.3,2.5h-2.2c0-.6-.2-1-.3-1.3h2.1c1,0,1.5-.4,1.5-1.4v-7.9h-11.2v10.8ZM158.3,889.4h10.7v5.1h-10.7v-5.1ZM159.5,902h4.8c.3-.6.8-1.5,1.5-2.6.3-.5.5-.9.6-1.2l1.2.6c0,.1-.2.4-.5.8-.6,1-1.1,1.9-1.5,2.4h2.4v1.1h-3.7v5h-1.2v-5h-3.6v-1.1ZM159.6,890.6v2.7h8.2v-2.7h-8.2ZM160,898.8l1.1-.6c.3.4.6,1,1.1,1.8.3.5.6.9.8,1.2l-1.2.6c-.7-1.2-1.2-2.1-1.8-2.9Z" fill="#010101"/>
      <path d="M173.9,889.1h2.5c.5-1.6.9-2.9,1.2-4l1.4.3c-.4,1.3-.8,2.5-1.2,3.7h5v18.8h-1.4v-2h-6.2v2.1h-1.3v-18.9ZM175.2,890.3v6.6h6.2v-6.6h-6.2ZM175.2,898.1v6.7h6.2v-6.7h-6.2ZM185,894.4c-.1,0-.3-.2-.6-.4-.3-.1-.5-.2-.6-.3,1.4-2.3,2.7-5.2,3.7-8.6l1.4.3c-.4,1.2-.8,2.4-1.4,3.6h8.1v1.6c-.1,5.8-.3,10.3-.5,13.4,0,2.5-1.3,3.8-4.2,3.9h-3.8c0,0,0-.2,0-.3,0-.5-.2-.9-.3-1.1.9,0,2.2,0,4,0,2.1,0,3.1-.9,3.1-2.8.1-1.6.2-5,.3-10.3,0-1.5,0-2.6,0-3.2h-7.2c-.8,1.9-1.5,3.3-2.1,4.1ZM186.1,895.6l1-.8c.1.2.3.5.6.8,1.4,1.8,2.5,3.2,3.3,4.4l-1.1.8c-1.2-1.8-2.5-3.5-3.8-5.2Z" fill="#010101"/>
      <path d="M203.4,906.5h-1.6c.8-5.6,3.3-11.7,7.6-18.2h-10.9v-1.3h12.7v.9c-4.5,6.5-7.1,12.7-7.8,18.6Z" fill="#010101"/>
      <path d="M213.5,892.4h4v-4.6c-1.1.1-2.3.2-3.6.2,0-.1,0-.4,0-.7,0-.3-.1-.5-.2-.6,3.1,0,6-.3,8.6-.7l.3,1.3c-1.2.2-2.4.3-3.6.4v4.7h3.5v1.2h-3.5v3.8l.7-.7c1.1,1,2.3,2.2,3.5,3.7l-1,.9c-.5-.5-1.1-1.3-2-2.2-.6-.7-1-1.1-1.3-1.5v10.8h-1.4v-12.5c-.8,3.1-2,5.7-3.7,8-.2-.5-.4-1-.7-1.5,1.8-2.3,3.3-5.2,4.4-8.9h-4v-1.2ZM221.1,907.3c6-1.9,10.3-5.2,12.9-10.1l1.2.7c-2.7,4.9-7.1,8.5-13.2,10.6-.2-.4-.5-.8-.9-1.3ZM225.4,889.5l1.3.4c-1.2,2.9-2.3,5.5-3.4,7.7l-1.3-.6c1.1-1.9,2.2-4.4,3.4-7.5ZM228.6,885.1h1.3v15.1h-1.3v-15.1ZM231.8,889.9l1.1-.6c1.6,2.2,2.9,4.3,4.1,6.3l-1.2.7c-1-1.6-2.4-3.8-4-6.4Z" fill="#010101"/>
      <path d="M238.9,893.6c-.3-.3-.7-.7-1-1,1.8-2.5,3-5,3.8-7.6l1.3.4c-.4,1.2-.8,2.3-1.4,3.3h5.2v1.2h-5.8c-.6,1.2-1.3,2.5-2.1,3.7ZM238.3,898h3.3v-3.8h-1.7v-1.3h6.1v1.3h-3v3.8h3.7v1.2h-3.7v6.3c1.2-.6,2.4-1.3,3.7-2.1,0,.5,0,1,.3,1.4-.2.1-.5.3-.9.5-1.2.5-2.3,1.1-3.1,1.7-.4.2-.7.5-1,.8l-1-1.1c.4-.4.6-.8.6-1.4v-6.1h-3.3v-1.2ZM253.8,885.1h1.3v4.7h5.6v11.2h-1.3v-1.1h-4.3v8.4h-1.3v-8.4h-4.3v1.1h-1.3v-11.2h5.6v-4.7ZM249.5,891.1v7.6h4.3v-7.6h-4.3ZM259.4,891.1h-4.3v7.6h4.3v-7.6Z" fill="#010101"/>
      <path d="M274.4,885.1h1.4v4.3h8.9v15.7c0,1.8-.9,2.7-2.9,2.7h-3.5c0-.2-.1-.5-.2-1,0-.2,0-.4,0-.5.8,0,2,0,3.5,0s1.9-.6,1.9-1.7v-14.2h-7.6v.9c0,1.8-.3,3.4-.8,4.6l.7-.7c2.5,2.1,4.7,4,6.4,5.7l-1.1,1.1c-1.9-1.9-3.9-3.8-6.2-5.8-.7,2-2.8,4.1-6.2,6.2,0-.2-.3-.5-.6-.8-.1-.2-.2-.3-.3-.4,4.7-2.3,6.9-5.6,6.6-9.9v-.9h-7.7v17.5h-1.4v-18.8h9.2v-4.3Z" fill="#010101"/>
      <path d="M295.2,901.7v2.1c0,2.2-.7,3.8-2.3,4.9l-.7-.6c1.4-1,2.1-2.3,2.1-3.9h-1.4v-2.5h2.3Z" fill="#010101"/>
      <path d="M47.8,931.4c2.1-2,3.7-3.6,5-4.9v-11.4h1.3v23.3h-1.3v-10.1c-1.4,1.4-2.8,2.8-4.2,4.3l-.8-1.3ZM48,919.5l1.1-.6c.1.3.4.7.7,1.3,1.1,1.9,1.9,3.3,2.3,4.2l-1.2.6c-.9-1.8-1.9-3.6-2.9-5.5ZM56.1,922.1c0,0-.2-.2-.4-.5-.3-.3-.4-.4-.5-.5,2.7-1.7,5.1-3.7,7-6.2l1.2.6c-.1.1-.3.4-.6.7-.3.5-.9,1-1.7,1.8h9.5v1.3c-3.1,3.7-7.9,6.3-14.5,7.8,0-.2-.3-.6-.7-1.2,6.1-1.3,10.5-3.5,13.5-6.6h-9.1c-.3.2-.6.4-.9.6.3.2.6.5,1,.8,1,.7,1.7,1.3,2.2,1.8l-1.1.9c-.6-.6-1.5-1.4-2.7-2.4,0,0,0,0-.3-.2-.6.5-1.3.9-2.1,1.5ZM66.7,925.2h1.4v3h3.6v1.3h-3.6v5.9c0,1.7-.9,2.6-2.9,2.6-.4,0-.9,0-1.6,0h-1.3c0-.1,0-.3,0-.5,0-.4-.1-.7-.2-1,.9,0,1.9,0,2.8,0,1.3,0,1.9-.5,1.9-1.7v-5.6h-11.4v-1.3h11.4v-3ZM57.8,931.1l1-.8c.5.5,1.3,1.3,2.4,2.4.5.5.9.9,1.2,1.2l-1.1.9c-1.3-1.4-2.5-2.7-3.5-3.7Z" fill="#010101"/>
      <path d="M80.3,932.4c.1.6.3,1.1.4,1.5-2,1.6-3.5,2.8-4.4,3.8l-1-1.2c.5-.6.7-1.3.7-2.1v-9.7h-3v-1.3h4.4v11.6c0,0,.2-.1.3-.2,1.4-1.2,2.2-2.1,2.6-2.4ZM78.2,920.5c-.9-1.1-2.1-2.5-3.6-4.1l1-.8c.6.5,1.7,1.7,3.3,3.5.3.2.4.4.5.5l-1.2.9ZM83.6,926.1v7.9c-.1,1.6.8,2.4,2.7,2.2h5.1c2,.1,3-.5,3.2-1.9.2-.8.4-1.9.7-3.3.5.2.9.4,1.3.5,0,.8-.3,1.9-.7,3.3-.3,1.8-1.7,2.7-4.4,2.6h-5.4c-2.6,0-3.9-1-3.9-3.1v-9.6h11.3v-7.2h-11.5v-1.3h12.9v9.8h-11.3Z" fill="#010101"/>
      <path d="M98.6,935.9l-.6-1.2c3.3-1.1,7.1-2.6,11.3-4.5v-4.3h-11.1v-1.2h18.2v-3h-15v-1.2h15v-3h-15.4v-1.2h16.8v8.4h3.8v1.2h-10.8v.5c.9,2,1.8,3.4,2.7,4.4,2.5-1.7,4.2-2.9,5.2-3.5l1,1c-2.1,1.4-3.9,2.5-5.4,3.4,1.4,1.4,3.9,2.6,7.4,3.6-.4.4-.7.7-.8,1-5.2-1.4-8.6-3.9-10.2-7.5v6.3c.1,1.8-.8,2.7-2.7,2.7-.4,0-1.3,0-2.7,0,0-.6-.2-1-.3-1.4h2.4c1.4,0,2-.5,2-1.8v-3.2c-.9.3-2.7,1-5.4,2.1-2.7,1.1-4.5,1.8-5.4,2.1ZM104.5,931.1c-1.3-1-2.7-2-4.3-2.9l.9-1c2.1,1.3,3.5,2.2,4.4,2.8l-1,1.1Z" fill="#010101"/>
      <path d="M136.4,937.4c-3.9-.1-6.9-1-8.9-2.7-.8,1.1-2.1,2.3-3.6,3.7,0-.1-.2-.3-.5-.5-.2-.3-.4-.5-.5-.6,1.8-1.5,3-2.7,3.6-3.6-1.2-1.4-2.3-3.4-3.1-5.8l1.3-.5c.8,2.1,1.6,3.8,2.5,5.1,1-1.6,1.6-3.8,1.9-6.6h-5.7v-1.4l5.8-6.2h-5.8v-1.3h7.2v1.5l-5.7,6.2h5.5v1.3c-.3,3.1-1.1,5.6-2.2,7.6,1.7,1.6,4.5,2.4,8.4,2.5,2.5.1,5.8.1,9.9,0,0,.2-.2.4-.3.7,0,.3-.1.6-.2.7-4,0-7.2,0-9.6,0ZM133.5,922h1.4v9.5h3.9v-13.4c-1.9,0-3.9.2-6.1.3,0-.3-.2-.7-.3-1.3,5.6-.3,9.9-.6,12.9-.9l.3,1.3c-.7,0-1.7.2-3.1.3-1,0-1.8.1-2.3.2v5.7h5.3v1.2h-5.3v6.6h5.7v1.2h-12.3v-10.6Z" fill="#010101"/>
      <path d="M148.9,917.4h7.8v19.2h-1.4v-2h-5.2v2.2h-1.3v-19.5ZM150.2,918.6v6.8h5.2v-6.8h-5.2ZM150.2,926.6v6.8h5.2v-6.8h-5.2ZM166.9,915h1.3v5.5h3.4v1.2h-3.4v13.3c0,2-1,3-3.2,3h-3.5c0-.5-.2-1-.3-1.4h3.5c1.6,0,2.3-.6,2.2-2v-13h-8.8v-1.2h8.8v-5.5ZM161.9,930.7c-.7-1.4-1.6-3.2-2.7-5.4l1.1-.6c.1.3.3.6.6,1.1,1,1.8,1.8,3.2,2.2,4.2l-1.2.7Z" fill="#010101"/>
      <path d="M173.1,929.4l-.2-1.6c.1,0,.4-.2.7-.3.6-.2,1.4-.5,2.3-1v-5.7h-2.8v-1.2h2.8v-4.7h1.3v4.7h2.7v1.2h-2.7v5.1c.8-.4,1.6-.8,2.5-1.2,0,.5,0,1,0,1.4-.8.4-1.7.8-2.6,1.2v8.5c0,1.6-.7,2.4-2.1,2.3-.4,0-.9,0-1.7,0,0-.4,0-.8-.2-1.4.5,0,1,0,1.6,0,.8,0,1.2-.3,1.2-1.2v-7.9c-.3.1-.7.3-1.2.6-.7.4-1.3.7-1.7.9ZM179.5,932.4l.8-.9c1.1.7,2.2,1.5,3.2,2.2.8-1,1.4-2.1,1.9-3.3h-5.8v-1.1h7v1.2c-.8,1.8-1.5,3.1-2.1,3.9.2.1.5.3.8.6.6.4,1,.7,1.4.9l-.9,1c-.7-.6-1.4-1.1-2.1-1.5-1,1-2.6,2-4.6,2.9,0,0-.2-.2-.3-.4-.3-.3-.4-.5-.5-.7,1.8-.7,3.3-1.6,4.5-2.6-.3-.3-.8-.7-1.6-1.2-.7-.5-1.3-.8-1.7-1.1ZM180.2,927.5l-.3-1.2c.8,0,1.7,0,2.5,0v-9h-2.3v-1.1h15.8v1.1h-2.3v8.4c.9-.1,1.8-.2,2.6-.2v1.1c-.3,0-.7,0-1.3,0-.6,0-1,0-1.4,0v1.7h-1.3v-1.7c-1.5,0-3.8.2-6.8.4-2.3.2-4,.3-5.3.4ZM183.6,917.3v2.1h8.7v-2.1h-8.7ZM183.6,920.5v2.2h8.7v-2.2h-8.7ZM183.6,926.3c3.1-.2,6-.4,8.7-.6v-2h-8.7v2.5ZM187.6,930.5v-1.1h8.1v1.1c-.7,2-1.6,3.6-2.9,4.8,1.1.7,2.5,1.4,4.1,2,0,0,0,.1-.2.2,0,.2-.2.5-.5.9-1.6-.7-3-1.5-4.2-2.4-1.2,1-2.9,1.9-4.9,2.6-.2-.3-.4-.7-.7-1.1,2-.7,3.5-1.4,4.7-2.1-1.2-1.2-2.1-2.8-2.7-4.8h-.8ZM194.5,930.5h-5c.6,1.6,1.4,3,2.4,4,1-1.1,1.9-2.4,2.5-4Z" fill="#010101"/>
      <path d="M204.2,923.6l1.2-.3c.3.6.5,1.2.7,1.8h6.4v1h-14.6v-1h6.8c0-.1-.1-.3-.2-.5-.2-.4-.3-.7-.4-1ZM198.9,937.4l-.9-.9c1.4-1,2.6-2.1,3.6-3.3l1,.8c-.5.6-1.3,1.3-2.4,2.2-.5.5-.9.9-1.3,1.2ZM199.3,916.1h11.5v6.8h-11.5v-6.8ZM199.7,927.9h10.8v4.2h-4.6v3.8c0,1.5-.7,2.3-2.2,2.3h-2.1c0-.1-.1-.4-.2-.8,0-.2,0-.3,0-.4h1.9c1.1,0,1.6-.4,1.6-1.3v-3.7h-5.1v-4.2ZM200.5,917.2v1.9h9.2v-1.9h-9.2ZM200.5,920.1v1.9h9.2v-1.9h-9.2ZM200.9,928.9v2.2h8.5v-2.2h-8.5ZM207.5,934l.8-.9c.5.3,1.1.8,1.9,1.6.5.4.9.7,1.2.9l-.9.8c-.5-.5-1.2-1-2.1-1.8-.3-.3-.6-.5-.8-.6ZM211.8,938.5c-.4-.5-.7-.9-.9-1.1,3.9-2,7.1-4.7,9.6-8.2l1.1.8c-2.4,3.5-5.7,6.3-9.8,8.5ZM213.3,922.5c-.4-.5-.7-.8-1-1,2.6-1.6,4.8-3.6,6.5-6l1.1.8c-1.9,2.4-4.1,4.5-6.6,6.2ZM213.6,929.7c0,0-.2-.2-.4-.5-.3-.3-.5-.5-.6-.6,2.8-1.8,5.2-4.1,7.2-6.8l1.1.9c-2.2,2.8-4.7,5.1-7.3,7Z" fill="#010101"/>
      <path d="M226.6,934.3c.2-2,1.3-3.1,3.3-3.3,2,.2,3.1,1.3,3.3,3.3-.2,1.9-1.3,2.9-3.3,3.1-2-.2-3.1-1.2-3.3-3.1ZM227.5,934.3c.1,1.4.9,2.1,2.4,2.2,1.4-.1,2.2-.9,2.3-2.2-.1-1.4-.9-2.2-2.3-2.3-1.5.1-2.3.9-2.4,2.3Z" fill="#010101"/>
    </g>
    <g>
      <path d="M1114.4,617.4v6.3h3.3v6h-3.3v5c.4-.1,1-.2,1.7-.3.8-.2,1.3-.3,1.7-.3,0,2.4,0,4.6.2,6.5-.2,0-.6.1-1.2.3-1,.1-1.8.2-2.3.3v10.3c0,3.1-1.5,4.8-4.5,5-1.9.2-3.5.3-5,.3-.2-1.2-.5-2.8-.8-4.6-.2-.7-.3-1.1-.3-1.3h2.7c1.1,0,1.7-.6,1.7-1.7v-6.3c-.6.2-1.3.4-2.3.7-.8.2-1.3.4-1.7.5l-.5-7.1c.6-.1,1.3-.3,2.3-.5,1-.1,1.7-.2,2.2-.3v-6.3h-4.1v-6h4.1v-6.3h6.3ZM1126.5,617.2l7.6.3c-.2.8-.6,1.9-1,3.3-.3.9-.6,1.6-.7,2h10.1v33.9h-6.6v-2.8h-10.6v2.8h-6.5v-33.9h6.5c.4-1.7.8-3.5,1.2-5.6ZM1125.4,628.8v6.6h10.6v-6.6h-10.6ZM1125.4,641.5v6.8h10.6v-6.8h-10.6Z" fill="#010101"/>
      <path d="M1171.2,640.5v4.8c-.7,1.9-1.5,3.5-2.5,4.8l2.5,1.7c1-.3,1.9-.7,2.7-1-1-1.1-1.9-2.3-2.7-3.7l3.3-2h-2.5v-4.6h13.6v5c-1,2.1-2,3.9-3.2,5.3,1.2.6,2.7,1,4.3,1.3-.9,1.2-1.7,2.8-2.5,4.6-2.4-.8-4.5-1.7-6.1-2.7-1.7,1-3.7,1.9-6.1,2.8-.1-.2-.3-.5-.5-.8-.3-.4-.9-1.2-1.7-2.3l-1.8,2.2c-.3-.2-.8-.6-1.5-1.2-.7-.4-1.2-.8-1.5-1.2-1.1.9-3.1,2-6,3.5-.2-.3-.7-.9-1.3-1.8-.9-1.3-1.5-2.3-1.8-2.8,1.3-.2,2.8-.8,4.5-1.7-.3-.2-.9-.6-1.7-1.2-.8-.4-1.4-.8-1.8-1l3-3.5h-2.2v-3.3c-.2,0-.6,0-1,.2-.4,0-.8,0-1,.2v8.3c0,3.7-1.4,5.6-4.3,5.8-.6,0-1.3,0-2.2.2-.9,0-1.6,0-2.2.2-.1-2.1-.4-4.1-1-6.1.6.1,1.2.2,2,.2,1.1,0,1.7-.7,1.7-2v-5.1c-1,.1-2,.3-3.2.7l-.5-7c1.3-.2,2.5-.4,3.7-.5v-6.1h-2.8v-6.1h2.8v-7.1h6v7.1h3v6.1h-3v5.1c.4,0,1.2-.1,2.2-.3-.7.2-.5.2.5,0v5.1h12.8ZM1158.2,618.6h27.4v4.6h-2.3v11l3-.2v4.5h-3v1.3h-6v-1l-18.4.5-.2-4.5h2v-11.6h-2.5v-4.6ZM1165.7,645.1h-5.5c1.3.7,2.7,1.4,4,2.3.6-.7,1-1.4,1.5-2.3ZM1166.7,623.2v1.5h10.6v-1.5h-10.6ZM1166.7,628.2v1.3h10.6v-1.3h-10.6ZM1166.7,633.2v1.5l10.6-.3v-1.2h-10.6ZM1175.5,645.1c.9,1,1.7,1.9,2.5,2.8,1-.9,1.8-1.8,2.3-2.8h-4.8Z" fill="#010101"/>
      <path d="M1189.1,620.9l3.8-2.8c1.5,1.4,3,2.9,4.5,4.5l-3.7,2.7h3.8v-8h5.5v8h3.2l-3-2.7c1-.8,2.5-2.3,4.5-4.6l3.8,3c-1.3,1.6-2.7,3-4,4.3h2.8v4.3c1.8-3.3,3.2-7.4,4.1-12.3l6,.8c-.1.2-.2.6-.3,1-.2,1-.7,2.4-1.3,4.1h10.1v6.3h-2.2c-.7,7-2,12.4-4.1,16.3,1.7,1.8,3.9,3.4,6.6,5-1.2,1.8-2.4,3.8-3.7,6-2.8-2-5-3.9-6.8-5.6-1.8,1.8-4,3.8-6.8,6-.3-.4-.8-1.2-1.5-2.2-.6-.8-1-1.4-1.3-1.8l-1.7,2.8c-.7-.3-1.7-.8-3-1.5-1.2-.7-2.2-1.2-2.8-1.5-2.5,1.7-6.2,3-11,4.1-.1-.2-.3-.6-.5-1-.8-2-1.4-3.4-1.8-4.1,1.7-.3,3.7-.8,6.1-1.5.3-.1.6-.2.8-.2-1.6-.9-3.3-1.7-5.3-2.5.3-.6.8-1.3,1.5-2.3.3-.6.6-.9.7-1.2h-3.3v-5h6.1c.4-.8.8-1.5,1.2-2.2h6.1c-.1.2-.3.6-.7,1-.2.6-.4.9-.7,1.2h8.5v5.3c-1,1.8-2,3.4-3.2,4.8.3.1.8.3,1.3.5.9.4,1.5.7,2,.8,2.3-1.7,4.2-3.3,5.6-5-1.2-2.3-2.2-5.1-2.8-8.3-.1.2-.3.6-.7,1.2-.2.4-.4.8-.7,1.2-.7-1.3-1.2-2.4-1.7-3.2l-1.3,1.8c-1.2-.9-2.9-2-5.1-3.5v1.5h-5.5v-2c-2,1.7-4.1,3-6.3,4.1-.8-1.7-1.7-3.3-2.7-4.8,3-1.1,5.2-2.3,6.6-3.5h-6v-5.1h3.5c-.2-.2-.5-.6-.8-1-1.4-1.5-2.4-2.7-2.8-3.3ZM1197.2,645.6c1.3.4,2.7,1,4,1.7,1-.9,1.8-1.9,2.3-3h-5.5c-.3.6-.6,1-.8,1.3ZM1205.3,631c1,.6,2.1,1.2,3.3,1.8.6-.9,1-1.7,1.3-2.5h-7v3.3l2.3-2.7ZM1216.5,629.5c.4,4,1.3,7.5,2.5,10.6,1-2.4,1.7-6,2-10.6h-4.5Z" fill="#010101"/>
      <path d="M1234.7,635.1h33.2v11.8h-13.3v1.2h14.1v3.3h-14.1v.8h16.8v3.5h-40.2v-3.5h16.8v-.8h-14.1v-3.3h14.1v-1.2h-13.3v-11.8ZM1231.4,634v-3.5h39.8v3.5h-39.8ZM1234.5,629.5v-11.5h33.5v11.5h-33.5ZM1241.2,621.5v1.2h20.2v-1.2h-20.2ZM1241.2,626.4h20.2v-1.2h-20.2v1.2ZM1241.2,638.1v1.5h6.8v-1.5h-6.8ZM1241.2,642.4v1.5h6.8v-1.5h-6.8ZM1261.4,638.1h-6.8v1.5h6.8v-1.5ZM1261.4,643.9v-1.5h-6.8v1.5h6.8Z" fill="#010101"/>
      <path d="M1283,640.1h-6.5v-6.5h6.5v6.5ZM1283,653.4h-6.5v-6.2h6.5v6.2Z" fill="#010101"/>
    </g>
    <path d="M791.8,149h-40.9c-2.7,0-4.8,2.2-4.8,4.8v94.3c0,2.7-2.2,4.8-4.8,4.8h-41.3c-2.7,0-4.8-2.2-4.8-4.8v-94.3c0-2.7-2.2-4.8-4.8-4.8h-40.9c-3.7,0-6.1-4-4.2-7.3l71.3-123.5c1.9-3.2,6.5-3.2,8.4,0l71.3,123.5c1.9,3.2-.5,7.3-4.2,7.3Z" fill="#fff"/>
  </g>
  <g id="count">
    <text id="countdown" transform="translate(1217.3 394.2)" fill="#010101" font-family="HelveticaNeue-Bold, &apos;Helvetica Neue&apos;" font-size="150" font-weight="700" letter-spacing="0em"><tspan x="0" y="0">7</tspan></text>
  </g>
  <g id="phototaken">
    <text id="photoCount" transform="translate(1205.6 813.5)" fill="#010101" font-family="HelveticaNeue-Bold, &apos;Helvetica Neue&apos;" font-size="72" font-weight="700"><tspan x="0" y="0">3/8</tspan></text>
  </g>
</svg>